# xmcd
#
# Track frame offsets:
#	150
#	18302
#	43737
#	69830
#
# Disc length: 981 seconds
#
# Revision: 1
# Processed by: cddbd v1.5.1PL0 Copyright (c) Steve Scherf et al.
# Submitted via: audiograbber 1.83.01
#
DISCID=2903d304
DTITLE=Spacebaby - Free your Mind
DYEAR=1995
DGENRE=House
TTITLE0=Free your Mind (7" Radio Mix)
TTITLE1=Free your Mind (12" Club Mix)
TTITLE2=Free your Mind (Tall Paul Mix)
TTITLE3=Free your Mind (Acapella)
EXTD=
EXTT0=
EXTT1=
EXTT2=
EXTT3=
PLAYORDER=
